<svg width="1216" height="188" viewBox="0 0 1216 188" fill="none" xmlns="http://www.w3.org/2000/svg">
<path d="M102.453 26.2231C62.8134 39.0297 42.9937 57.7314 42.9937 82.3283C42.9937 87.4103 44.5183 91.3742 47.5675 94.2201C50.6166 97.0661 55.4954 100.42 62.2036 104.282C70.7413 108.755 77.2463 113.532 81.7184 118.614C86.3939 123.492 88.7316 130.506 88.7316 139.653C88.7316 151.24 84.8693 160.286 77.1446 166.791C69.6233 173.296 59.8659 176.548 47.8724 176.548C33.8461 176.548 22.3608 171.568 13.4165 161.607C4.47215 151.647 0 138.535 0 122.273C0 93.8136 8.23283 68.9118 24.6985 47.5674C41.1641 26.2231 67.0823 10.3673 102.453 0V26.2231ZM227.165 26.2231C187.729 39.0297 168.011 57.7314 168.011 82.3283C168.011 87.4103 169.535 91.3742 172.584 94.2201C175.634 97.0661 180.512 100.42 187.221 104.282C195.555 108.755 201.958 113.532 206.431 118.614C211.106 123.492 213.444 130.506 213.444 139.653C213.444 151.24 209.683 160.286 202.162 166.791C194.64 173.296 184.883 176.548 172.889 176.548C158.66 176.548 147.073 171.568 138.129 161.607C129.184 151.443 124.712 138.332 124.712 122.273C124.712 93.8136 132.945 68.9118 149.411 47.5674C165.876 26.2231 191.794 10.3673 227.165 0V26.2231Z" fill="black" fill-opacity="0.1"/>
<path d="M988 161.325C1027.64 148.519 1047.46 129.817 1047.46 105.22C1047.46 100.138 1045.93 96.1742 1042.89 93.3282C1039.84 90.4823 1034.96 87.1282 1028.25 83.2659C1019.71 78.7938 1013.11 74.1183 1008.43 69.2396C1003.96 64.1576 1001.72 57.0429 1001.72 47.8953C1001.72 36.3083 1005.48 27.2623 1013 20.7574C1020.73 14.2524 1030.59 11 1042.58 11C1056.61 11 1068.09 15.9803 1077.04 25.941C1085.98 35.9017 1090.45 49.0133 1090.45 65.2756C1090.45 93.7348 1082.22 118.637 1065.75 139.981C1049.29 161.325 1023.37 177.181 988 187.548V161.325ZM1113.02 161.325C1152.66 148.519 1172.48 129.817 1172.48 105.22C1172.48 100.138 1170.95 96.1742 1167.9 93.3282C1164.85 90.4823 1159.97 87.1282 1153.27 83.2659C1144.73 78.7938 1138.12 74.1183 1133.45 69.2396C1128.97 64.1576 1126.74 57.0429 1126.74 47.8953C1126.74 36.3083 1130.5 27.2623 1138.02 20.7574C1145.54 14.2524 1155.3 11 1167.29 11C1181.52 11 1193.11 16.082 1202.05 26.246C1211 36.2067 1215.47 49.2165 1215.47 65.2756C1215.47 93.7348 1207.24 118.637 1190.77 139.981C1174.31 161.325 1148.39 177.181 1113.02 187.548V161.325Z" fill="black" fill-opacity="0.1"/>
</svg>
