<svg width="99" height="99" viewBox="0 0 99 99" fill="none" xmlns="http://www.w3.org/2000/svg">
<path fill-rule="evenodd" clip-rule="evenodd" d="M49.5 99C76.8381 99 99 76.8381 99 49.5C99 22.1619 76.8381 0 49.5 0C22.1619 0 0 22.1619 0 49.5C0 76.8381 22.1619 99 49.5 99ZM60.5363 53.9645L62.585 43.8516H74.7467V34.7412H64.2851L67.6851 17H58.3132L54.9131 34.7412H46.2823L49.6387 17H40.0925L36.7361 34.7412H24.1385V43.8516H35.1232L33.0745 53.9645H21V62.9441H31.3745L28.1488 80.6417H37.5207L40.8336 62.9441H49.29L45.89 80.6417H55.4799L58.8363 62.9441H71.7826V53.9645H60.5363ZM51.0772 53.9645H42.5336L44.5823 43.8516H53.126L51.0772 53.9645Z" fill="#D0D0D0"/>
</svg>
